# xmcd
#
# Track frame offsets:
# 150
# 16397
# 29296
# 51295
# 67820
# 83364
# 95759
# 131641
# 139590
# 155981
# 170141
# 184216
# 202390
# 212751
# 236587
# 243856
#
# Disc length: 3472 seconds
#
#
# Revision: 0
# Processed by: cddbd v1.4PL0 Copyright (c) Steve Scherf et al.
# Submitted via: FreeRIP 2.00 
#
DISCID=e60d8e10
DTITLE=Willie Nelson - Always On My Mind
DYEAR=1991
DGENRE=Country
TTITLE0=You're Always On My Mind
TTITLE1=To All The Girls I've Loved Before
TTITLE2=City Of New Orleans
TTITLE3=Georgia On The Mind
TTITLE4=Whiskey River
TTITLE5=Seven Spanish Angels
TTITLE6=Medley
TTITLE7=If You Got The Money, Honey
TTITLE8=Angel Flying Too Close To The Ground
TTITLE9=Good Hearted Woman
TTITLE10=Blue Eyes Crying In The Rain
TTITLE11=The Red Headed Stranger
TTITLE12=On The Road Again
TTITLE13=Till I Can Gain Control Again
TTITLE14=Luckenbach Texas
TTITLE15=Additional Track
EXTD=
EXTT0=
EXTT1=
EXTT2=
EXTT3=
EXTT4=
EXTT5=
EXTT6=
EXTT7=
EXTT8=
EXTT9=
EXTT10=
EXTT11=
EXTT12=
EXTT13=
EXTT14=
EXTT15=
PLAYORDER=
